<?xml version="1.0" encoding="UTF-8"?>
<svg xmlns="http://www.w3.org/2000/svg" xmlns:xlink="http://www.w3.org/1999/xlink" width="16px" height="16px" viewBox="0 0 16 16" version="1.1">
<g>
<path 
d="M 13.96875 1.757812 C 13.859375 1.3125 13.460938 0.972656 13 0.972656 L 3 0.972656 C 2.539062 0.972656 2.140625 1.285156 2.03125 1.730469 L 0.117188 9.527344 C 0.0390625 9.839844 0 10.164062 0 10.484375 L 0 13.5 C 0 14.328125 0.671875 15 1.5 15 L 14.5 15 C 15.328125 15 16 14.328125 16 13.5 L 16 10.484375 C 16 10.160156 15.960938 9.839844 15.882812 9.527344 Z M 11 11 L 5 11 L 4 9 L 2.28125 9 L 3.78125 3 L 12.21875 3 L 13.71875 9 L 12 9 Z M 11 11 "/>
</g>
</svg>
